<svg width="18" height="20" viewBox="0 0 18 20" fill="none" xmlns="http://www.w3.org/2000/svg">
<path d="M17.7938 14.2444C17.2735 13.3481 16.5 10.8122 16.5 7.5C16.5 5.51088 15.7098 3.60322 14.3033 2.1967C12.8968 0.790176 10.9891 0 9.00001 0C7.01089 0 5.10323 0.790176 3.69671 2.1967C2.29019 3.60322 1.50001 5.51088 1.50001 7.5C1.50001 10.8131 0.725637 13.3481 0.205324 14.2444C0.0724531 14.4722 0.00201297 14.7311 0.00110747 14.9949C0.000201977 15.2586 0.0688633 15.518 0.200167 15.7467C0.331471 15.9755 0.520774 16.1656 0.748986 16.2978C0.977197 16.4301 1.23625 16.4998 1.50001 16.5H5.32595C5.49899 17.3467 5.95916 18.1077 6.62864 18.6542C7.29811 19.2007 8.1358 19.4992 9.00001 19.4992C9.86422 19.4992 10.7019 19.2007 11.3714 18.6542C12.0409 18.1077 12.501 17.3467 12.6741 16.5H16.5C16.7637 16.4996 17.0226 16.4298 17.2507 16.2975C17.4788 16.1651 17.668 15.975 17.7992 15.7463C17.9303 15.5176 17.9989 15.2583 17.998 14.9946C17.997 14.7309 17.9266 14.4722 17.7938 14.2444ZM9.00001 18C8.53484 17.9999 8.08115 17.8555 7.70139 17.5869C7.32162 17.3183 7.03444 16.9386 6.87939 16.5H11.1206C10.9656 16.9386 10.6784 17.3183 10.2986 17.5869C9.91887 17.8555 9.46518 17.9999 9.00001 18Z" fill="black"/>
</svg>
